# xmcd
#
# Track frame offsets: 
#        150
#        11786
#        23733
#        36856
#        49751
#        60255
#        71149
#        82277
#        93736
#        105699
#        115808
#        126128
#        137294
#        148411
#        159142
#        170471
#        182879
#        194519
#        206332
#        217680
#
# Disc length: 3074 seconds
#
# Revision: 0
# Processed by: cddbd v1.4PL0 Copyright (c) Steve Scherf et al.
# Submitted via: ExactAudioCopy v0.90b4
#
DISCID=1c0c0014
DTITLE=Patsy Cline and Kitty Wells - 20 Great Hits
DYEAR=1997
DGENRE=
TTITLE0=Walkin' After Midnight - PC
TTITLE1=It Wasn't God Who Made Honky Tonk Angels - KW
TTITLE2=Life's Railway to Heaven - PC
TTITLE3=Makin' Believe - KW
TTITLE4=Lovesick Blues - PC
TTITLE5=Mommy For A Day - KW
TTITLE6=I Can't Forget You - PC
TTITLE7=The White Circle On My Finger - KW
TTITLE8=Today, Tomorrow And Forever - PC
TTITLE9=I Heard The Jukebox Playing - KW
TTITLE10=Three Cigarettes In An Ashtray - PC
TTITLE11=Heartbreak USA - KW
TTITLE12=Stop The World - PC
TTITLE13=Searchin' (For Someone Like You) - KW
TTITLE14=Just Out Of Reach - PC
TTITLE15=Release Me - KW
TTITLE16=In Care Of The Blues - PC
TTITLE17=I Gave My Wedding Dress Away - KW
TTITLE18=Hungry For Love - PC
TTITLE19=I Don't Claim To Be An Angel - KW
EXTD=Done by Gubi this day of 10-12-2003
EXTT0=
EXTT1=
EXTT2=
EXTT3=
EXTT4=
EXTT5=
EXTT6=
EXTT7=
EXTT8=
EXTT9=
EXTT10=
EXTT11=
EXTT12=
EXTT13=
EXTT14=
EXTT15=
EXTT16=
EXTT17=
EXTT18=
EXTT19=
PLAYORDER=
